<svg width="22" height="18" viewBox="0 0 22 18" fill="none" xmlns="http://www.w3.org/2000/svg">
<path d="M2.75003 6.776C2.86203 6.759 2.97703 6.75 3.09403 6.75H18.906C19.023 6.75 19.138 6.759 19.25 6.776M2.75003 6.776C2.16479 6.86663 1.63888 7.18434 1.28638 7.66022C0.933873 8.13609 0.783194 8.73175 0.867027 9.318L1.72403 15.318C1.80057 15.8541 2.06792 16.3447 2.47701 16.6996C2.88609 17.0545 3.40945 17.2499 3.95103 17.25H18.05C18.5916 17.2499 19.115 17.0545 19.524 16.6996C19.9331 16.3447 20.2005 15.8541 20.277 15.318L21.134 9.318C21.2179 8.73175 21.0672 8.13609 20.7147 7.66022C20.3622 7.18434 19.8353 6.86663 19.25 6.776M2.75003 6.776L2.75103 3C2.75103 2.40344 2.98794 1.83129 3.40968 1.40936C3.83142 0.987435 4.40346 0.750265 5.00003 0.75H8.87903C9.27672 0.75035 9.65799 0.908615 9.93903 1.19L12.061 3.31C12.3421 3.59138 12.7233 3.74965 13.121 3.75H17C17.5968 3.75 18.1691 3.98705 18.591 4.40901C19.013 4.83097 19.25 5.40326 19.25 6V6.776" stroke="#110F0F" stroke-width="1.5" stroke-linecap="round" stroke-linejoin="round"/>
<g clip-path="url(#clip0_164_9)">
<path d="M10.1766 12.7024C10.0894 12.5142 9.93018 12.3585 9.72618 12.2618C9.52218 12.1652 9.28611 12.1336 9.05841 12.1725C8.83071 12.2113 8.62554 12.3183 8.47805 12.475C8.33056 12.6317 8.24992 12.8284 8.24995 13.0314C8.24995 13.1212 8.22886 13.2101 8.18798 13.2926C8.1471 13.375 8.0873 13.4492 8.0123 13.5106C7.9373 13.572 7.84868 13.6193 7.75195 13.6495C7.65522 13.6796 7.55243 13.6921 7.44995 13.6861C7.61477 13.9367 7.8695 14.1326 8.17459 14.2435C8.47969 14.3543 8.81809 14.374 9.13725 14.2993C9.45641 14.2247 9.73849 14.06 9.93969 13.8307C10.1409 13.6014 10.25 13.3204 10.25 13.0314C10.25 12.915 10.224 12.8039 10.1766 12.7024ZM10.1766 12.7024C10.573 12.5842 10.952 12.4256 11.306 12.2299M9.62495 12.2226C9.76002 11.875 9.9415 11.5427 10.1656 11.2324M11.3056 12.2299C11.9377 11.8804 12.4788 11.4185 12.8936 10.8742L14.1856 9.17844C14.2351 9.11385 14.2574 9.03623 14.2488 8.95884C14.2402 8.88144 14.2011 8.80908 14.1383 8.75409C14.0754 8.6991 13.9927 8.66491 13.9043 8.65735C13.8158 8.64979 13.7271 8.66934 13.6533 8.71264L11.7153 9.84344C11.0931 10.2063 10.5651 10.6796 10.1656 11.2326C10.6729 11.4311 11.0788 11.7863 11.3056 12.2301" stroke="#110F0F" stroke-width="0.5" stroke-linecap="round" stroke-linejoin="round"/>
</g>
<defs>
<clipPath id="clip0_164_9">
<rect width="8" height="7" fill="white" transform="translate(7 8)"/>
</clipPath>
</defs>
</svg>
